<svg xmlns="http://www.w3.org/2000/svg" width="32.76" height="28.342" viewBox="0 0 32.76 28.342">
  <g id="Grupo_320" data-name="Grupo 320" transform="translate(-3.896 -6.35)">
    <g id="Grupo_319" data-name="Grupo 319" transform="translate(11.18 14.64)">
      <g id="Trazado_151" data-name="Trazado 151" transform="translate(-1500.444 -8255.074)" fill="#fff">
        <path d="M 1514.5498046875 8266.1923828125 C 1514.460815429688 8266.1923828125 1514.382446289063 8266.1796875 1514.310424804688 8266.154296875 C 1514.12060546875 8266.09375 1513.958618164063 8265.9560546875 1513.865234375 8265.7763671875 L 1512.429443359375 8262.9814453125 C 1512.236083984375 8262.6044921875 1512.3857421875 8262.138671875 1512.762939453125 8261.9443359375 C 1512.872436523438 8261.888671875 1512.993774414063 8261.859375 1513.114990234375 8261.859375 C 1513.405151367188 8261.859375 1513.667602539063 8262.01953125 1513.799682617188 8262.2763671875 L 1514.477416992188 8263.5966796875 C 1514.978393554688 8262.0341796875 1514.767333984375 8260.3251953125 1513.8798828125 8258.9296875 C 1512.857299804688 8257.322265625 1511.10546875 8256.3623046875 1509.193725585938 8256.3623046875 C 1508.143310546875 8256.3623046875 1507.118530273438 8256.6611328125 1506.230224609375 8257.2265625 C 1506.10693359375 8257.3056640625 1505.963134765625 8257.3486328125 1505.815795898438 8257.3486328125 C 1505.55126953125 8257.3486328125 1505.308715820313 8257.21484375 1505.166870117188 8256.9912109375 C 1505.056396484375 8256.818359375 1505.020263671875 8256.611328125 1505.065185546875 8256.41015625 C 1505.110107421875 8256.208984375 1505.23046875 8256.0380859375 1505.404174804688 8255.9287109375 C 1506.5400390625 8255.2060546875 1507.850830078125 8254.82421875 1509.1943359375 8254.82421875 C 1511.636352539063 8254.82421875 1513.873779296875 8256.0498046875 1515.179443359375 8258.103515625 C 1516.25244140625 8259.7880859375 1516.553588867188 8261.876953125 1516.023315429688 8263.7998046875 L 1516.991333007813 8263.302734375 C 1517.099975585938 8263.2470703125 1517.221313476563 8263.2177734375 1517.342651367188 8263.2177734375 C 1517.633056640625 8263.2177734375 1517.895751953125 8263.3779296875 1518.028198242188 8263.6357421875 C 1518.221557617188 8264.013671875 1518.072143554688 8264.478515625 1517.695556640625 8264.6728515625 L 1514.901611328125 8266.1083984375 C 1514.794189453125 8266.1630859375 1514.672485351563 8266.1923828125 1514.5498046875 8266.1923828125 Z" stroke="none"/>
        <path d="M 1514.5498046875 8265.9423828125 C 1514.631591796875 8265.9423828125 1514.713134765625 8265.923828125 1514.787353515625 8265.8857421875 L 1517.580810546875 8264.451171875 C 1517.836181640625 8264.3193359375 1517.937255859375 8264.0068359375 1517.805908203125 8263.75 C 1517.713745117188 8263.5712890625 1517.531494140625 8263.4677734375 1517.342651367188 8263.4677734375 C 1517.2626953125 8263.4677734375 1517.181518554688 8263.486328125 1517.10546875 8263.525390625 L 1515.599609375 8264.2978515625 C 1516.33740234375 8262.3173828125 1516.12841796875 8260.05859375 1514.968505859375 8258.2373046875 C 1513.668090820313 8256.1923828125 1511.454223632813 8255.07421875 1509.1943359375 8255.07421875 C 1507.940307617188 8255.07421875 1506.672119140625 8255.41796875 1505.537841796875 8256.1396484375 C 1505.29541015625 8256.29296875 1505.2236328125 8256.615234375 1505.3779296875 8256.857421875 C 1505.476806640625 8257.013671875 1505.644409179688 8257.0986328125 1505.815795898438 8257.0986328125 C 1505.911743164063 8257.0986328125 1506.008911132813 8257.0712890625 1506.095947265625 8257.015625 C 1507.056762695313 8256.404296875 1508.131469726563 8256.1123046875 1509.193725585938 8256.1123046875 C 1511.110473632813 8256.1123046875 1512.987915039063 8257.0615234375 1514.0908203125 8258.7958984375 C 1515.12890625 8260.427734375 1515.267822265625 8262.46875 1514.5126953125 8264.212890625 L 1513.577392578125 8262.390625 C 1513.4853515625 8262.2119140625 1513.303466796875 8262.109375 1513.114990234375 8262.109375 C 1513.034790039063 8262.109375 1512.953491210938 8262.1279296875 1512.87744140625 8262.1669921875 C 1512.62158203125 8262.298828125 1512.520751953125 8262.611328125 1512.65185546875 8262.8671875 L 1514.087158203125 8265.6611328125 C 1514.14990234375 8265.7822265625 1514.25927734375 8265.876953125 1514.390625 8265.9169921875 C 1514.442626953125 8265.9365234375 1514.49658203125 8265.9423828125 1514.5498046875 8265.9423828125 M 1514.5498046875 8266.4423828125 C 1514.43310546875 8266.4423828125 1514.328369140625 8266.42578125 1514.230102539063 8266.390625 C 1513.9794921875 8266.3095703125 1513.766235351563 8266.12890625 1513.643188476563 8265.8916015625 L 1512.207153320313 8263.095703125 C 1511.950927734375 8262.595703125 1512.14892578125 8261.9794921875 1512.6484375 8261.72265625 C 1512.7939453125 8261.6484375 1512.95458984375 8261.609375 1513.114990234375 8261.609375 C 1513.499267578125 8261.609375 1513.846801757813 8261.8212890625 1514.02197265625 8262.162109375 L 1514.398681640625 8262.8955078125 C 1514.64990234375 8261.5830078125 1514.3994140625 8260.212890625 1513.6689453125 8259.064453125 C 1512.692504882813 8257.529296875 1511.01953125 8256.6123046875 1509.193725585938 8256.6123046875 C 1508.19091796875 8256.6123046875 1507.212646484375 8256.8974609375 1506.364379882813 8257.4375 C 1506.202026367188 8257.5419921875 1506.011352539063 8257.5986328125 1505.815795898438 8257.5986328125 C 1505.465209960938 8257.5986328125 1505.143798828125 8257.421875 1504.955810546875 8257.125 C 1504.8095703125 8256.8955078125 1504.76171875 8256.6220703125 1504.821166992188 8256.35546875 C 1504.880737304688 8256.08984375 1505.040283203125 8255.8623046875 1505.270629882813 8255.716796875 C 1506.446044921875 8254.9697265625 1507.80322265625 8254.57421875 1509.1943359375 8254.57421875 C 1511.722290039063 8254.57421875 1514.03857421875 8255.8427734375 1515.390380859375 8257.96875 C 1516.40234375 8259.5576171875 1516.751220703125 8261.4931640625 1516.390502929688 8263.330078125 L 1516.877197265625 8263.080078125 C 1517.021118164063 8263.0068359375 1517.181884765625 8262.9677734375 1517.342651367188 8262.9677734375 C 1517.727172851563 8262.9677734375 1518.074951171875 8263.1796875 1518.25048828125 8263.521484375 C 1518.506591796875 8264.0224609375 1518.308837890625 8264.6376953125 1517.810180664063 8264.8955078125 L 1515.015747070313 8266.330078125 C 1514.873168945313 8266.4033203125 1514.712036132813 8266.4423828125 1514.5498046875 8266.4423828125 Z" stroke="none" fill="#707070"/>
      </g>
      <g id="Trazado_152" data-name="Trazado 152" transform="translate(-1491.304 -8260.291)" fill="#fff">
        <path d="M 1500.090698242188 8274.1923828125 C 1499.573120117188 8274.1923828125 1499.051391601563 8274.134765625 1498.539916992188 8274.021484375 C 1496.693115234375 8273.6103515625 1495.117065429688 8272.5048828125 1494.101684570313 8270.908203125 C 1492.96337890625 8269.12109375 1492.6962890625 8266.912109375 1493.353759765625 8264.90234375 L 1492.080932617188 8265.3505859375 C 1491.997802734375 8265.3798828125 1491.911987304688 8265.39453125 1491.8251953125 8265.39453125 C 1491.499267578125 8265.39453125 1491.207153320313 8265.1884765625 1491.098388671875 8264.8828125 C 1491.029541015625 8264.685546875 1491.04150390625 8264.474609375 1491.1318359375 8264.2880859375 C 1491.221313476563 8264.103515625 1491.376953125 8263.96484375 1491.570190429688 8263.8974609375 L 1494.530395507813 8262.8544921875 C 1494.610961914063 8262.8251953125 1494.697631835938 8262.8095703125 1494.7861328125 8262.8095703125 C 1494.899291992188 8262.8095703125 1495.013916015625 8262.8359375 1495.117431640625 8262.8837890625 C 1495.302978515625 8262.974609375 1495.44580078125 8263.1337890625 1495.512451171875 8263.3232421875 L 1496.55712890625 8266.287109375 C 1496.62548828125 8266.48046875 1496.614379882813 8266.689453125 1496.525390625 8266.875 C 1496.436401367188 8267.060546875 1496.28076171875 8267.2001953125 1496.087036132813 8267.2685546875 C 1496.00537109375 8267.296875 1495.919921875 8267.310546875 1495.830688476563 8267.310546875 C 1495.504150390625 8267.310546875 1495.212280273438 8267.10546875 1495.104248046875 8266.7998046875 L 1494.720336914063 8265.7109375 C 1494.335205078125 8267.1923828125 1494.574340820313 8268.7822265625 1495.4013671875 8270.083984375 C 1496.196655273438 8271.3310546875 1497.430053710938 8272.1953125 1498.874267578125 8272.5166015625 C 1499.275024414063 8272.60546875 1499.68408203125 8272.650390625 1500.089599609375 8272.650390625 C 1501.1357421875 8272.650390625 1502.159912109375 8272.3505859375 1503.051391601563 8271.7841796875 C 1503.174682617188 8271.705078125 1503.317993164063 8271.6630859375 1503.464965820313 8271.6630859375 C 1503.729858398438 8271.6630859375 1503.972778320313 8271.796875 1504.11474609375 8272.0205078125 C 1504.341430664063 8272.3779296875 1504.235595703125 8272.85546875 1503.87890625 8273.083984375 C 1502.736694335938 8273.8095703125 1501.427124023438 8274.1923828125 1500.090698242188 8274.1923828125 Z" stroke="none"/>
        <path d="M 1500.090698242188 8273.9423828125 C 1501.374389648438 8273.9423828125 1502.634155273438 8273.578125 1503.744018554688 8272.873046875 C 1503.986450195313 8272.7177734375 1504.057739257813 8272.3974609375 1503.903686523438 8272.154296875 C 1503.8046875 8271.998046875 1503.636596679688 8271.9130859375 1503.464965820313 8271.9130859375 C 1503.369140625 8271.9130859375 1503.272216796875 8271.939453125 1503.185546875 8271.9951171875 C 1502.2451171875 8272.5927734375 1501.177612304688 8272.900390625 1500.089599609375 8272.900390625 C 1499.667358398438 8272.900390625 1499.2421875 8272.8544921875 1498.819946289063 8272.7607421875 C 1497.31005859375 8272.4248046875 1496.020874023438 8271.5205078125 1495.1904296875 8270.2177734375 C 1494.179809570313 8268.6279296875 1494.023193359375 8266.6484375 1494.712768554688 8264.9375 L 1495.339965820313 8266.716796875 C 1495.414916992188 8266.9287109375 1495.615966796875 8267.060546875 1495.830688476563 8267.060546875 C 1495.887939453125 8267.060546875 1495.946533203125 8267.052734375 1496.003662109375 8267.033203125 C 1496.2744140625 8266.9375 1496.416870117188 8266.6396484375 1496.3212890625 8266.3701171875 L 1495.276611328125 8263.40625 C 1495.231201171875 8263.27734375 1495.135375976563 8263.1708984375 1495.01123046875 8263.1103515625 C 1494.940185546875 8263.0771484375 1494.863159179688 8263.0595703125 1494.7861328125 8263.0595703125 C 1494.727783203125 8263.0595703125 1494.66943359375 8263.0693359375 1494.613525390625 8263.08984375 L 1491.651977539063 8264.1337890625 C 1491.381225585938 8264.2275390625 1491.23876953125 8264.5263671875 1491.333984375 8264.798828125 C 1491.409545898438 8265.01171875 1491.610595703125 8265.14453125 1491.8251953125 8265.14453125 C 1491.882446289063 8265.14453125 1491.940673828125 8265.134765625 1491.997802734375 8265.115234375 L 1493.772705078125 8264.4892578125 C 1492.931640625 8266.5234375 1493.109008789063 8268.8837890625 1494.312622070313 8270.7744140625 C 1495.292236328125 8272.314453125 1496.81298828125 8273.380859375 1498.593994140625 8273.77734375 C 1499.091552734375 8273.8876953125 1499.592529296875 8273.9423828125 1500.090698242188 8273.9423828125 M 1500.090698242188 8274.4423828125 C 1499.555053710938 8274.4423828125 1499.015014648438 8274.3828125 1498.485717773438 8274.265625 C 1496.573608398438 8273.83984375 1494.94189453125 8272.6953125 1493.890747070313 8271.04296875 C 1492.801391601563 8269.33203125 1492.482666015625 8267.248046875 1492.978149414063 8265.2998046875 L 1492.1640625 8265.5869140625 C 1492.0537109375 8265.625 1491.940185546875 8265.64453125 1491.8251953125 8265.64453125 C 1491.393676757813 8265.64453125 1491.0068359375 8265.3720703125 1490.86279296875 8264.9658203125 C 1490.771484375 8264.705078125 1490.787353515625 8264.42578125 1490.90673828125 8264.1787109375 C 1491.025390625 8263.93359375 1491.23193359375 8263.75 1491.488403320313 8263.6611328125 L 1494.447265625 8262.6181640625 C 1494.553344726563 8262.580078125 1494.668579101563 8262.5595703125 1494.7861328125 8262.5595703125 C 1494.935791015625 8262.5595703125 1495.087158203125 8262.59375 1495.2236328125 8262.6572265625 L 1495.22705078125 8262.6591796875 L 1495.23046875 8262.6611328125 C 1495.474731445313 8262.7802734375 1495.658569335938 8262.9853515625 1495.748168945313 8263.240234375 L 1496.792846679688 8266.2041015625 C 1496.883544921875 8266.4599609375 1496.868774414063 8266.736328125 1496.750854492188 8266.982421875 C 1496.633178710938 8267.228515625 1496.427001953125 8267.4140625 1496.170288085938 8267.5048828125 L 1496.167846679688 8267.505859375 L 1496.165405273438 8267.505859375 C 1496.060180664063 8267.5419921875 1495.947509765625 8267.560546875 1495.830688476563 8267.560546875 C 1495.3984375 8267.560546875 1495.011840820313 8267.2880859375 1494.868530273438 8266.8837890625 L 1494.806518554688 8266.70703125 C 1494.72021484375 8267.8359375 1494.994384765625 8268.9775390625 1495.612426757813 8269.94921875 C 1496.371704101563 8271.140625 1497.549438476563 8271.9658203125 1498.928588867188 8272.2724609375 C 1499.311401367188 8272.357421875 1499.7021484375 8272.400390625 1500.089599609375 8272.400390625 C 1501.088134765625 8272.400390625 1502.06591796875 8272.1142578125 1502.917236328125 8271.5732421875 C 1503.080078125 8271.46875 1503.27001953125 8271.4130859375 1503.464965820313 8271.4130859375 C 1503.81591796875 8271.4130859375 1504.1376953125 8271.58984375 1504.325805664063 8271.88671875 C 1504.626098632813 8272.3603515625 1504.485961914063 8272.9912109375 1504.013671875 8273.2939453125 C 1502.830688476563 8274.0458984375 1501.474609375 8274.4423828125 1500.090698242188 8274.4423828125 Z" stroke="none" fill="#707070"/>
      </g>
    </g>
    <g id="Grupo_320-2" data-name="Grupo 320" transform="translate(4.146 6.6)">
      <g id="Trazado_133" data-name="Trazado 133" transform="translate(0 0)">
        <path id="Trazado_153" data-name="Trazado 153" d="M4299.213,4422.479h-28.182a2.041,2.041,0,0,1-2.039-2.039v-20.972a2.041,2.041,0,0,1,2.039-2.039h5.951v-.755a2.039,2.039,0,0,1,2.037-2.037h12.2a2.041,2.041,0,0,1,2.039,2.037v.755h5.953a2.041,2.041,0,0,1,2.039,2.039v20.972A2.041,2.041,0,0,1,4299.213,4422.479Zm-27.206-3.015h26.23v-19.02h-5.96a2.039,2.039,0,0,1-2.033-2.032v-.761H4280v.757a2.043,2.043,0,0,1-2.037,2.036h-5.952Zm7.015-21.812h0Zm13.262-.223h0Z" transform="translate(-4268.992 -4394.637)" fill="#fff" stroke="#707070" stroke-width="0.5"/>
      </g>
    </g>
  </g>
</svg>
